<svg xmlns="http://www.w3.org/2000/svg" xmlns:xlink="http://www.w3.org/1999/xlink" id="Layer_1" width="32" height="32" x="0" style="enable-background:new 0 0 32 32" y="0" version="1.1" viewBox="0 0 32 32" xml:space="preserve"><g><polygon style="fill:#231f20" points="32 4 0 4 0 0 32 0 32 4"/><polygon style="fill:#231f20" points="20 12 0 12 0 8 20 8 20 12"/><polygon style="fill:#231f20" points="32 20.086 0 20.086 0 16.086 32 16.086 32 20.086"/><circle style="fill:#231f20" cx="2" cy="30" r="2"/><path style="fill:#231f20" d="M12,30c0,1.104-0.898,2-2,2c-1.109,0-2.004-0.896-2.004-2S8.891,28,10,28C11.102,28,12,28.896,12,30 z"/><circle style="fill:#231f20" cx="18" cy="30" r="2"/></g></svg>